<?xml version="1.0" encoding="UTF-8"?>
<svg id="Layer_1" data-name="Layer 1" xmlns="http://www.w3.org/2000/svg" viewBox="0 0 57.41 64.01">
  <defs>
    <style>
      .cls-1 {
        stroke-width: 0px;
      }

      .cls-2 {
        fill: #c92eff;
      }

      .cls-2, .cls-3, .cls-4 {
        stroke: #000;
        stroke-miterlimit: 10;
      }

      .cls-3, .cls-4 {
        fill: #fff;
      }

      .cls-4 {
        stroke-linecap: round;
      }
    </style>
  </defs>
  <g>
    <rect class="cls-3" x="9.31" y="16.03" width="38.6" height="38.6" transform="translate(-16.61 30.58) rotate(-45)"/>
    <path class="cls-2" d="m28.71,8.7l26.6,26.6-26.6,26.6L2.11,35.3,28.71,8.7m0-1.4L.71,35.3l28,28,28-28L28.71,7.3h0Z"/>
  </g>
  <ellipse class="cls-4" cx="28.81" cy="16.4" rx="16.1" ry="15.9"/>
  <path class="cls-1" d="m40.41,8.2c-1,8.1-1.8,11.8-3.6,18.9-1.4,1.1-2.2,1.5-3.8,2-1.4-3.3-2.2-5.1-3.7-8.9-1.6,3.8-2.3,5.6-3.8,8.9-1.6-.5-2.4-.9-3.8-2-1.8-7.1-2.6-10.8-3.6-18.9.8,1.8,1.3,2.6,2.5,3.8,1.1,5.1,1.8,7.6,3.2,12.2,1.5-3.2,2.3-4.9,3.9-8.7,1.5.2,2.2.2,3.7-.1,1.5,3.7,2.3,5.5,3.7,8.7,1.4-4.7,2.1-7.2,3.2-12.5,1-1,1.4-1.7,2.1-3.4Z"/>
  <path class="cls-1" d="m34.21,46.4c-2.2-2.7-3.4-3.6-5.6-5.4-2.2,1.8-3.4,2.8-5.5,5.4-2.4.9-3.5,1.5-5.2,3.3,2.4-6,4.4-7.6,7.7-10.7-3.1-2.3-4.4-3.2-7.3-6.5h5.6c1.9,1.8,2.9,2.5,4.9,4.2,2-1.7,2.9-2.4,4.8-4.2h5.3c-3,3.2-4.2,4.1-7.3,6.4,3.4,3.1,5.4,4.7,7.8,10.8-1.7-1.8-2.8-2.5-5.2-3.3Z"/>
</svg>